# xmcd
#
# Track frame offsets: 
#        150
#        18362
#        36978
#        52435
#        72204
#        87807
#        99962
#        117150
#        132976
#        146768
#        161685
#        179284
#        193978
#        213830
#        230864
#        251371
#        266483
#        276771
#        295711
#        309576
#
# Disc length: 4444 seconds
#
# Revision: 0
# Processed by: cddbd v1.5.2PL0 Copyright (c) Steve Scherf et al.
# Submitted via: ExactAudioCopy v0.99pb5
#
DISCID=2d115a14
DTITLE=The Balogh Family - BF
DYEAR=1900
DGENRE=
TTITLE0=Woman in Love
TTITLE1=La Paloma
TTITLE2=Man Without love
TTITLE3=Dio come ti amo
TTITLE4=Weisse Rosen aus Athen
TTITLE5=Lurdato 'nnammurato
TTITLE6=Je 'taime mon amour
TTITLE7=Please realease me
TTITLE8=That's amore
TTITLE9=C'est si bon
TTITLE10=Du hast mich 1000 mal
TTITLE11=Money, money
TTITLE12=Love is in the air
TTITLE13=Buona sera Signorina
TTITLE14=Ottavan medley
TTITLE15=Erst ein Capuccino
TTITLE16=Sway
TTITLE17=Just a Gigolo
TTITLE18=Sag beim abschied
TTITLE19=Cant take my eyes
EXTD=
EXTT0=
EXTT1=
EXTT2=
EXTT3=
EXTT4=
EXTT5=
EXTT6=
EXTT7=
EXTT8=
EXTT9=
EXTT10=
EXTT11=
EXTT12=
EXTT13=
EXTT14=
EXTT15=
EXTT16=
EXTT17=
EXTT18=
EXTT19=
PLAYORDER=
